<svg width="99" height="39" viewBox="0 0 99 39" fill="none" xmlns="http://www.w3.org/2000/svg">
<g filter="url(#filter0_d_12_108)">
<path d="M19 8.18182V13.8636H4.625V8.18182H19ZM7.40909 2.95455H15.25V22.983C15.25 23.286 15.3021 23.5417 15.4062 23.75C15.5104 23.9489 15.6714 24.1004 15.8892 24.2045C16.107 24.2992 16.3864 24.3466 16.7273 24.3466C16.964 24.3466 17.2386 24.3182 17.5511 24.2614C17.8731 24.2045 18.1098 24.1572 18.2614 24.1193L19.3977 29.6307C19.0473 29.7348 18.5455 29.8627 17.892 30.0142C17.2481 30.1657 16.4811 30.2652 15.5909 30.3125C13.7917 30.4072 12.2813 30.2225 11.0597 29.7585C9.83807 29.285 8.91951 28.5417 8.30398 27.5284C7.68845 26.5152 7.39015 25.2462 7.40909 23.7216V2.95455ZM32.4766 30.3977C30.1091 30.3977 28.0826 29.929 26.397 28.9915C24.7114 28.0445 23.4188 26.7282 22.5192 25.0426C21.6196 23.3475 21.1697 21.3826 21.1697 19.1477C21.1697 16.9129 21.6196 14.9527 22.5192 13.267C23.4188 11.572 24.7114 10.2557 26.397 9.31818C28.0826 8.37121 30.1091 7.89773 32.4766 7.89773C34.844 7.89773 36.8705 8.37121 38.5561 9.31818C40.2417 10.2557 41.5343 11.572 42.4339 13.267C43.3336 14.9527 43.7834 16.9129 43.7834 19.1477C43.7834 21.3826 43.3336 23.3475 42.4339 25.0426C41.5343 26.7282 40.2417 28.0445 38.5561 28.9915C36.8705 29.929 34.844 30.3977 32.4766 30.3977ZM32.5334 24.6023C33.1963 24.6023 33.7692 24.3797 34.2521 23.9347C34.7351 23.4896 35.1091 22.8551 35.3743 22.0312C35.6394 21.2074 35.772 20.2273 35.772 19.0909C35.772 17.9451 35.6394 16.965 35.3743 16.1506C35.1091 15.3267 34.7351 14.6922 34.2521 14.2472C33.7692 13.8021 33.1963 13.5795 32.5334 13.5795C31.8326 13.5795 31.2313 13.8021 30.7294 14.2472C30.2275 14.6922 29.844 15.3267 29.5788 16.1506C29.3137 16.965 29.1811 17.9451 29.1811 19.0909C29.1811 20.2273 29.3137 21.2074 29.5788 22.0312C29.844 22.8551 30.2275 23.4896 30.7294 23.9347C31.2313 24.3797 31.8326 24.6023 32.5334 24.6023Z" fill="#4EA8DE"/>
<path d="M54.8629 30.2841C53.3099 30.2841 51.88 29.8769 50.5732 29.0625C49.2758 28.2481 48.2341 27.0123 47.4482 25.3551C46.6716 23.6979 46.2834 21.6098 46.2834 19.0909C46.2834 16.4583 46.6906 14.3182 47.505 12.6705C48.3288 11.0227 49.3894 9.81534 50.6868 9.0483C51.9936 8.28125 53.3667 7.89773 54.8061 7.89773C55.8857 7.89773 56.8326 8.08712 57.647 8.46591C58.4614 8.83523 59.1432 9.33239 59.6925 9.95739C60.2417 10.5729 60.6584 11.25 60.9425 11.9886H61.0561V0.90909H68.897V30H61.1129V26.4205H60.9425C60.6394 27.1591 60.2038 27.822 59.6357 28.4091C59.0769 28.9867 58.3951 29.446 57.5902 29.7869C56.7947 30.1184 55.8857 30.2841 54.8629 30.2841ZM57.7607 24.2614C58.4804 24.2614 59.0959 24.053 59.6072 23.6364C60.1281 23.2102 60.5258 22.6136 60.8004 21.8466C61.0845 21.0701 61.2266 20.1515 61.2266 19.0909C61.2266 18.0114 61.0845 17.0881 60.8004 16.321C60.5258 15.5445 60.1281 14.9527 59.6072 14.5455C59.0959 14.1288 58.4804 13.9205 57.7607 13.9205C57.041 13.9205 56.4254 14.1288 55.9141 14.5455C55.4122 14.9527 55.0239 15.5445 54.7493 16.321C54.4841 17.0881 54.3516 18.0114 54.3516 19.0909C54.3516 20.1705 54.4841 21.0985 54.7493 21.875C55.0239 22.642 55.4122 23.2339 55.9141 23.6506C56.4254 24.0578 57.041 24.2614 57.7607 24.2614ZM83.2578 30.3977C80.8904 30.3977 78.8639 29.929 77.1783 28.9915C75.4927 28.0445 74.2 26.7282 73.3004 25.0426C72.4008 23.3475 71.951 21.3826 71.951 19.1477C71.951 16.9129 72.4008 14.9527 73.3004 13.267C74.2 11.572 75.4927 10.2557 77.1783 9.31818C78.8639 8.37121 80.8904 7.89773 83.2578 7.89773C85.6252 7.89773 87.6518 8.37121 89.3374 9.31818C91.023 10.2557 92.3156 11.572 93.2152 13.267C94.1148 14.9527 94.5646 16.9129 94.5646 19.1477C94.5646 21.3826 94.1148 23.3475 93.2152 25.0426C92.3156 26.7282 91.023 28.0445 89.3374 28.9915C87.6518 29.929 85.6252 30.3977 83.2578 30.3977ZM83.3146 24.6023C83.9775 24.6023 84.5504 24.3797 85.0334 23.9347C85.5163 23.4896 85.8904 22.8551 86.1555 22.0312C86.4207 21.2074 86.5533 20.2273 86.5533 19.0909C86.5533 17.9451 86.4207 16.965 86.1555 16.1506C85.8904 15.3267 85.5163 14.6922 85.0334 14.2472C84.5504 13.8021 83.9775 13.5795 83.3146 13.5795C82.6139 13.5795 82.0125 13.8021 81.5107 14.2472C81.0088 14.6922 80.6252 15.3267 80.3601 16.1506C80.0949 16.965 79.9624 17.9451 79.9624 19.0909C79.9624 20.2273 80.0949 21.2074 80.3601 22.0312C80.6252 22.8551 81.0088 23.4896 81.5107 23.9347C82.0125 24.3797 82.6139 24.6023 83.3146 24.6023Z" fill="#5E60CE"/>
</g>
<defs>
<filter id="filter0_d_12_108" x="0.625" y="0.909088" width="97.9397" height="37.5455" filterUnits="userSpaceOnUse" color-interpolation-filters="sRGB">
<feFlood flood-opacity="0" result="BackgroundImageFix"/>
<feColorMatrix in="SourceAlpha" type="matrix" values="0 0 0 0 0 0 0 0 0 0 0 0 0 0 0 0 0 0 127 0" result="hardAlpha"/>
<feOffset dy="4"/>
<feGaussianBlur stdDeviation="2"/>
<feComposite in2="hardAlpha" operator="out"/>
<feColorMatrix type="matrix" values="0 0 0 0 0 0 0 0 0 0 0 0 0 0 0 0 0 0 0.25 0"/>
<feBlend mode="normal" in2="BackgroundImageFix" result="effect1_dropShadow_12_108"/>
<feBlend mode="normal" in="SourceGraphic" in2="effect1_dropShadow_12_108" result="shape"/>
</filter>
</defs>
</svg>
